<?xml version="1.0" standalone="no"?>
<!DOCTYPE svg PUBLIC "-//W3C//DTD SVG 20010904//EN"
 "http://www.w3.org/TR/2001/REC-SVG-20010904/DTD/svg10.dtd">
<svg version="1.0" xmlns="http://www.w3.org/2000/svg"
 width="2560.000000pt" height="1534.000000pt" viewBox="0 0 2560.000000 1534.000000"
 preserveAspectRatio="xMidYMid meet">

<g transform="translate(0.000000,1534.000000) scale(0.100000,-0.100000)"
fill="#000000" stroke="none">
<path d="M17954 13272 l-1551 -1968 -1158 -1572 c-636 -865 -1160 -1572 -1163
-1572 -4 1 -515 707 -1136 1570 l-1129 1570 -255 0 -254 0 15 -24 c13 -18
2401 -3334 2470 -3427 l19 -27 -1341 -1835 c-738 -1010 -1341 -1838 -1341
-1841 0 -3 116 -6 258 -6 l257 0 1219 1675 1218 1675 32 -43 c18 -23 564 -777
1215 -1674 l1183 -1633 265 0 c209 0 263 3 257 13 -5 6 -601 830 -1327 1830
-725 1000 -1321 1825 -1323 1832 -3 7 1137 1663 2552 3707 1406 2031 2561
3699 2567 3706 5 6 8 12 5 12 -2 0 -701 -886 -1554 -1968z"/>
<path d="M30 7720 l0 -3580 219 0 219 0 6 2728 c3 1500 9 2987 14 3304 l7 578
2265 -3292 2265 -3292 1528 -2030 c841 -1117 1536 -2038 1544 -2046 20 -19 63
-82 -4051 6045 l-3463 5160 -277 3 -276 2 0 -3580z"/>
<path d="M6050 7720 l0 -3580 2435 0 2435 0 0 190 0 190 -2212 2 -2213 3 -3
1573 -2 1572 2060 0 2060 0 0 190 0 190 -2057 2 -2058 3 -3 1433 -2 1432 2190
0 2190 0 0 190 0 190 -2410 0 -2410 0 0 -3580z"/>
<path d="M17232 11113 l3 -188 1258 -3 1257 -2 0 -3390 0 -3390 225 0 225 0 0
3390 0 3390 1263 2 1262 3 3 188 2 187 -2750 0 -2750 0 2 -187z"/>
<path d="M24853 6226 c-149 -29 -253 -82 -327 -167 -111 -127 -134 -332 -54
-482 65 -121 162 -174 464 -251 228 -59 294 -85 342 -140 27 -31 52 -89 52
-121 0 -34 -26 -92 -58 -126 -85 -95 -249 -132 -412 -93 -114 26 -206 100
-231 183 l-12 41 -119 0 -118 0 6 -42 c16 -106 78 -213 159 -279 58 -46 170
-97 255 -115 115 -24 319 -15 427 20 150 49 266 149 314 273 18 46 22 79 23
163 1 133 -17 190 -85 264 -85 93 -167 130 -431 196 -90 23 -188 50 -218 61
-108 40 -160 100 -160 183 0 140 119 227 308 227 176 0 285 -65 324 -193 l11
-38 114 0 113 0 0 33 c0 84 -63 202 -146 276 -125 110 -351 163 -541 127z"/>
<path d="M23830 5653 c0 -308 -4 -574 -10 -608 -21 -131 -102 -200 -234 -199
-123 0 -211 67 -231 177 l-7 37 -114 0 -114 0 0 -43 c0 -24 7 -68 16 -98 56
-188 224 -299 454 -299 196 0 347 81 419 224 55 111 54 104 58 754 l4 602
-120 0 -121 0 0 -547z"/>
<path d="M22645 4950 c-75 -17 -119 -75 -119 -157 0 -159 217 -214 291 -73 29
54 29 94 1 150 -33 64 -102 97 -173 80z"/>
</g>
</svg>
